<?xml version="1.0" encoding="UTF-8"?>
<svg width="16px" height="12px" viewBox="0 0 16 12" version="1.1" xmlns="http://www.w3.org/2000/svg" xmlns:xlink="http://www.w3.org/1999/xlink">
    <!-- Generator: Sketch 49.1 (51147) - http://www.bohemiancoding.com/sketch -->
    <title>menu</title>
    <desc>Created with Sketch.</desc>
    <defs></defs>
    <g id="Page-1" stroke="none" stroke-width="1" fill="none" fill-rule="evenodd">
        <g id="menu" fill="#FFFFFF" fill-rule="nonzero">
            <path d="M8,12 L15,12 C15.552,12 16,11.552 16,11 C16,10.448 15.552,10 15,10 L8,10 C7.448,10 7,10.448 7,11 C7,11.552 7.448,12 8,12 Z" id="Shape"></path>
            <path d="M1,2 L15,2 C15.552,2 16,1.552 16,1 C16,0.448 15.552,0 15,0 L1,0 C0.448,0 0,0.448 0,1 C0,1.552 0.448,2 1,2 Z" id="Shape"></path>
            <path d="M1,7 L15,7 C15.552,7 16,6.552 16,6 C16,5.448 15.552,5 15,5 L1,5 C0.448,5 0,5.448 0,6 C0,6.552 0.448,7 1,7 Z" id="Shape"></path>
        </g>
    </g>
</svg>